<svg width="212" height="62" viewBox="0 0 212 62" fill="none" xmlns="http://www.w3.org/2000/svg">
<path d="M64.5423 17.8096C68.8033 17.8096 72.0541 18.7852 74.2949 20.7365C76.5357 22.6877 77.6564 25.6782 77.6564 29.7075V44.0328H69.2767V40.7015C67.9827 43.2078 65.4578 44.4612 61.7017 44.4612C59.7134 44.4612 57.9932 44.1121 56.5415 43.4142C55.0898 42.7163 53.9928 41.7721 53.251 40.5826C52.5092 39.3928 52.1384 38.0362 52.1384 36.5133C52.1384 34.0702 53.0695 32.1742 54.9318 30.8259C56.794 29.4772 59.6662 28.8032 63.5483 28.8032H68.6613C68.5033 26.0748 66.6886 24.7104 63.217 24.7104C61.9862 24.7104 60.7393 24.9089 59.4769 25.3055C58.2145 25.7021 57.1413 26.2494 56.2574 26.9473L53.2272 20.8079C54.6477 19.8561 56.3757 19.1183 58.4116 18.5949C60.4474 18.0716 62.4908 17.8099 64.5423 17.8099V17.8096ZM64.211 38.7502C65.2525 38.7502 66.168 38.4964 66.9571 37.9887C67.7462 37.4808 68.314 36.7354 68.6613 35.7519V33.515H64.7792C62.1595 33.515 60.8498 34.3878 60.8498 36.1328C60.8498 36.926 61.1495 37.5607 61.7493 38.0366C62.3491 38.5124 63.1698 38.7505 64.211 38.7505V38.7502Z" fill="#00DBB0"/>
<path d="M108.291 18.2349L97.6859 44.0297H88.4067L77.8491 18.2349H87.0811L93.2356 33.9878L99.7218 18.2349H108.291Z" fill="#00DBB0"/>
<path d="M126.756 17.8093C129.092 17.8093 131.215 18.3487 133.124 19.4272C135.033 20.506 136.549 22.0528 137.669 24.0672C138.79 26.082 139.35 28.4221 139.35 31.0873C139.35 33.7525 138.79 36.1004 137.669 38.1309C136.549 40.1615 135.033 41.7243 133.124 42.8188C131.215 43.9133 129.092 44.4606 126.756 44.4606C123.379 44.4606 120.854 43.4614 119.181 41.4623V44.0322H110.612V8.71875H119.607V20.4739C121.343 18.6971 123.726 17.809 126.756 17.809L126.756 17.8093ZM124.863 37.2745C126.441 37.2745 127.735 36.7273 128.745 35.6324C129.755 34.5379 130.26 33.0229 130.26 31.0873C130.26 29.1835 129.755 27.6924 128.745 26.6136C127.735 25.5348 126.441 24.9954 124.863 24.9954C123.284 24.9954 121.99 25.5348 120.98 26.6136C119.97 27.6924 119.465 29.1835 119.465 31.0873C119.465 33.0229 119.97 34.5375 120.98 35.6324C121.99 36.7273 123.284 37.2745 124.863 37.2745Z" fill="#00DBB0"/>
<path d="M156.394 44.4616C153.648 44.4616 151.17 43.8904 148.961 42.7484C146.751 41.606 145.023 40.0196 143.776 37.9891C142.529 35.9586 141.906 33.6582 141.906 31.0879C141.906 28.5498 142.53 26.2654 143.776 24.2345C145.023 22.204 146.743 20.6255 148.937 19.4992C151.13 18.3725 153.616 17.8096 156.394 17.8096C159.171 17.8096 161.665 18.3725 163.874 19.4992C166.083 20.6255 167.803 22.1962 169.034 24.211C170.265 26.2258 170.881 28.518 170.881 31.0879C170.881 33.6582 170.265 35.9582 169.034 37.9891C167.803 40.0196 166.083 41.606 163.874 42.7484C161.664 43.8904 159.171 44.4616 156.394 44.4616ZM156.394 37.2751C157.972 37.2751 159.266 36.7279 160.276 35.633C161.286 34.5385 161.791 33.0235 161.791 31.0879C161.791 29.1841 161.286 27.693 160.276 26.6142C159.266 25.5354 157.972 24.996 156.394 24.996C154.815 24.996 153.521 25.5354 152.511 26.6142C151.501 27.693 150.997 29.1841 150.997 31.0879C150.997 33.0235 151.501 34.5382 152.511 35.633C153.521 36.7279 154.815 37.2751 156.394 37.2751Z" fill="#00DBB0"/>
<path d="M185.162 34.9895L182.511 37.7025V44.0322H173.516V8.71875H182.511V27.2322L191.696 18.2373H202.348L191.696 29.2785L203.248 44.0322H192.359L185.162 34.9895Z" fill="#00DBB0"/>
<path d="M143.059 53.1911H141.919V46.5659H143.059V53.1911Z" fill="#00DBB0"/>
<path d="M145.382 48.2662L145.413 48.8349C145.776 48.3953 146.251 48.1753 146.839 48.1753C147.859 48.1753 148.378 48.7625 148.396 49.9363V53.1898H147.297V50.0002C147.297 49.6879 147.229 49.4567 147.095 49.3064C146.96 49.1564 146.741 49.0809 146.436 49.0809C145.993 49.0809 145.662 49.2828 145.445 49.6866V53.1901H144.345V48.2668H145.382L145.382 48.2662Z" fill="#00DBB0"/>
<path d="M151.24 51.7891L152.277 48.2671H153.413L151.716 53.1907H150.761L149.05 48.2671H150.19L151.24 51.7891Z" fill="#00DBB0"/>
<path d="M156.256 53.2806C155.559 53.2806 154.993 53.0596 154.561 52.6186C154.128 52.1772 153.911 51.5897 153.911 50.8552V50.7186C153.911 50.227 154.005 49.788 154.194 49.4013C154.383 49.0146 154.648 48.7137 154.988 48.4981C155.33 48.2829 155.709 48.1753 156.129 48.1753C156.796 48.1753 157.311 48.3891 157.675 48.8168C158.038 49.2445 158.22 49.8499 158.22 50.6325V51.0783H155.02C155.053 51.4848 155.188 51.8063 155.425 52.043C155.662 52.2794 155.96 52.3979 156.319 52.3979C156.823 52.3979 157.234 52.1933 157.55 51.7837L158.143 52.3525C157.947 52.6466 157.685 52.8748 157.358 53.0371C157.03 53.1993 156.663 53.2806 156.256 53.2806H156.256ZM156.124 49.0625C155.823 49.0625 155.579 49.1687 155.393 49.3808C155.208 49.5933 155.089 49.8888 155.038 50.2683H157.134V50.1863C157.11 49.8164 157.012 49.5366 156.839 49.3467C156.667 49.1571 156.429 49.0625 156.124 49.0625Z" fill="#00DBB0"/>
<path d="M160.096 48.2662L160.128 48.8349C160.49 48.3953 160.965 48.1753 161.553 48.1753C162.573 48.1753 163.093 48.7625 163.111 49.9363V53.1898H162.011V50.0002C162.011 49.6879 161.944 49.4567 161.809 49.3064C161.675 49.1564 161.455 49.0809 161.151 49.0809C160.707 49.0809 160.376 49.2828 160.159 49.6866V53.1901H159.059V48.2668H160.096L160.096 48.2662Z" fill="#00DBB0"/>
<path d="M165.611 47.0664V48.2627H166.475V49.0819H165.611V51.8301C165.611 52.018 165.648 52.154 165.722 52.2377C165.796 52.3207 165.928 52.3627 166.118 52.3627C166.245 52.3627 166.373 52.3477 166.503 52.3173V53.1727C166.252 53.2424 166.011 53.2775 165.779 53.2775C164.934 53.2775 164.511 52.8089 164.511 51.8715V49.0822H163.705V48.2631H164.511V47.0667H165.611V47.0664Z" fill="#00DBB0"/>
<path d="M170.239 53.1898C170.191 53.0955 170.148 52.9424 170.112 52.7303C169.762 53.0972 169.334 53.281 168.827 53.281C168.335 53.281 167.934 53.1399 167.623 52.8577C167.312 52.5756 167.156 52.2264 167.156 51.811C167.156 51.2863 167.351 50.8836 167.738 50.6031C168.126 50.3226 168.681 50.1819 169.402 50.1819H170.076V49.8591C170.076 49.6042 170.005 49.4003 169.863 49.2473C169.721 49.0939 169.506 49.0174 169.216 49.0174C168.966 49.0174 168.76 49.0802 168.6 49.2059C168.441 49.332 168.36 49.4922 168.36 49.6862H167.26C167.26 49.4164 167.35 49.1636 167.527 48.9285C167.706 48.6935 167.948 48.5094 168.254 48.3755C168.56 48.2419 168.902 48.1753 169.279 48.1753C169.853 48.1753 170.31 48.3201 170.651 48.6098C170.991 48.8998 171.167 49.307 171.176 49.8314V52.0522C171.176 52.4949 171.237 52.8482 171.361 53.1122V53.1894H170.239L170.239 53.1898ZM169.031 52.3935C169.248 52.3935 169.452 52.3405 169.644 52.2343C169.836 52.1281 169.979 51.9856 170.076 51.8066V50.8784H169.483C169.076 50.8784 168.77 50.9498 168.564 51.0923C168.359 51.2351 168.256 51.4363 168.256 51.6976C168.256 51.9101 168.326 52.0792 168.467 52.2053C168.607 52.3313 168.795 52.3938 169.031 52.3938V52.3935Z" fill="#00DBB0"/>
<path d="M174.892 49.2763C174.747 49.252 174.598 49.2397 174.443 49.2397C173.939 49.2397 173.6 49.4341 173.425 49.8222V53.1894H172.325V48.2662H173.375L173.402 48.8168C173.668 48.3891 174.036 48.1753 174.507 48.1753C174.664 48.1753 174.794 48.1965 174.896 48.2388L174.892 49.2763Z" fill="#00DBB0"/>
<path d="M176.758 53.1842H175.658V48.2609H176.758V53.1842ZM175.59 46.9823C175.59 46.8122 175.644 46.6714 175.751 46.559C175.858 46.4463 176.011 46.3906 176.21 46.3906C176.409 46.3906 176.563 46.4463 176.672 46.559C176.78 46.6711 176.835 46.8122 176.835 46.9823C176.835 47.149 176.78 47.288 176.672 47.3987C176.563 47.5094 176.409 47.5647 176.21 47.5647C176.011 47.5647 175.858 47.5094 175.751 47.3987C175.644 47.288 175.59 47.1493 175.59 46.9823Z" fill="#00DBB0"/>
<path d="M180.7 51.8517C180.7 51.6549 180.619 51.5043 180.458 51.4014C180.296 51.2983 180.028 51.2074 179.654 51.1285C179.28 51.0496 178.968 50.9495 178.717 50.8279C178.168 50.5611 177.893 50.1744 177.893 49.6678C177.893 49.2432 178.072 48.8882 178.427 48.603C178.784 48.3177 179.236 48.1753 179.785 48.1753C180.371 48.1753 180.844 48.3208 181.204 48.6122C181.565 48.9033 181.745 49.2811 181.745 49.7453H180.645C180.645 49.5328 180.567 49.3566 180.41 49.2152C180.253 49.0741 180.045 49.0034 179.785 49.0034C179.544 49.0034 179.347 49.0594 179.195 49.1718C179.043 49.2842 178.966 49.4345 178.966 49.6223C178.966 49.7921 179.037 49.924 179.179 50.0183C179.321 50.1126 179.607 50.2072 180.039 50.3028C180.47 50.3981 180.809 50.5119 181.055 50.6438C181.301 50.7756 181.483 50.9341 181.603 51.1196C181.722 51.3044 181.781 51.5289 181.781 51.7929C181.781 52.2357 181.599 52.5943 181.234 52.8687C180.869 53.1433 180.391 53.2806 179.799 53.2806C179.398 53.2806 179.04 53.2079 178.726 53.062C178.412 52.9165 178.168 52.7163 177.993 52.4615C177.818 52.2066 177.73 51.932 177.73 51.6382H178.799C178.814 51.8988 178.912 52.1 179.093 52.2411C179.274 52.3819 179.514 52.4526 179.813 52.4526C180.102 52.4526 180.323 52.3972 180.474 52.2862C180.624 52.1755 180.7 52.0303 180.7 51.8513V51.8517Z" fill="#00DBB0"/>
<path d="M188.844 51.648H186.291L185.757 53.1907H184.567L187.056 46.5659H188.083L190.577 53.1907H189.383L188.844 51.648H188.844ZM186.613 50.7199H188.523L187.568 47.9716L186.612 50.7199H186.613Z" fill="#00DBB0"/>
<path d="M193.961 51.8517C193.961 51.6549 193.881 51.5043 193.719 51.4014C193.558 51.2983 193.29 51.2074 192.916 51.1285C192.542 51.0496 192.229 50.9495 191.979 50.8279C191.43 50.5611 191.155 50.1744 191.155 49.6678C191.155 49.2432 191.333 48.8882 191.689 48.603C192.045 48.3177 192.498 48.1753 193.047 48.1753C193.633 48.1753 194.106 48.3208 194.466 48.6122C194.827 48.9033 195.007 49.2811 195.007 49.7453H193.907C193.907 49.5328 193.829 49.3566 193.672 49.2152C193.515 49.0741 193.306 49.0034 193.047 49.0034C192.805 49.0034 192.608 49.0594 192.456 49.1718C192.304 49.2842 192.227 49.4345 192.227 49.6223C192.227 49.7921 192.298 49.924 192.44 50.0183C192.582 50.1126 192.869 50.2072 193.3 50.3028C193.731 50.3981 194.07 50.5119 194.316 50.6438C194.562 50.7756 194.745 50.9341 194.864 51.1196C194.983 51.3044 195.043 51.5289 195.043 51.7929C195.043 52.2357 194.86 52.5943 194.495 52.8687C194.13 53.1433 193.652 53.2806 193.06 53.2806C192.659 53.2806 192.302 53.2079 191.988 53.062C191.674 52.9165 191.43 52.7163 191.255 52.4615C191.08 52.2066 190.992 51.932 190.992 51.6382H192.06C192.075 51.8988 192.173 52.1 192.355 52.2411C192.536 52.3819 192.776 52.4526 193.074 52.4526C193.364 52.4526 193.584 52.3972 193.735 52.2862C193.886 52.1755 193.962 52.0303 193.962 51.8513L193.961 51.8517Z" fill="#00DBB0"/>
<path d="M198.157 53.2806C197.46 53.2806 196.895 53.0596 196.462 52.6186C196.029 52.1772 195.812 51.5897 195.812 50.8552V50.7186C195.812 50.227 195.907 49.788 196.096 49.4013C196.284 49.0146 196.549 48.7137 196.89 48.4981C197.231 48.2829 197.611 48.1753 198.031 48.1753C198.697 48.1753 199.213 48.3891 199.576 48.8168C199.94 49.2445 200.122 49.8499 200.122 50.6325V51.0783H196.921C196.955 51.4848 197.09 51.8063 197.326 52.043C197.563 52.2794 197.861 52.3979 198.22 52.3979C198.724 52.3979 199.135 52.1933 199.452 51.7837L200.045 52.3525C199.848 52.6466 199.587 52.8748 199.259 53.0371C198.932 53.1993 198.565 53.2806 198.157 53.2806ZM198.026 49.0625C197.724 49.0625 197.48 49.1687 197.295 49.3808C197.109 49.5933 196.991 49.8888 196.94 50.2683H199.035V50.1863C199.011 49.8164 198.913 49.5366 198.741 49.3467C198.569 49.1571 198.331 49.0625 198.026 49.0625Z" fill="#00DBB0"/>
<path d="M202.356 47.0664V48.2627H203.22V49.0819H202.356V51.8301C202.356 52.018 202.393 52.154 202.467 52.2377C202.541 52.3207 202.673 52.3627 202.863 52.3627C202.99 52.3627 203.118 52.3477 203.248 52.3173V53.1727C202.997 53.2424 202.756 53.2775 202.523 53.2775C201.679 53.2775 201.256 52.8089 201.256 51.8715V49.0822H200.45V48.2631H201.256V47.0667H202.356V47.0664Z" fill="#00DBB0"/>
<path fill-rule="evenodd" clip-rule="evenodd" d="M27.141 44.8939L17.2138 39.132C16.7809 38.8809 16.4407 38.5397 16.2086 38.1355L16.2049 38.1291L21.0123 35.3388L21.6278 35.9516L27.6729 39.4606C27.9366 39.6133 28.219 39.6899 28.502 39.6895C28.7841 39.6895 29.0668 39.613 29.3302 39.4606L33.6616 36.9464L28.5017 33.9515L15.8518 26.6097V25.2388C15.8518 24.7363 15.9758 24.2693 16.2079 23.8655L9.30781 19.8608C8.94556 20.4914 8.7522 21.2204 8.7522 22.0048V39.9956C8.7522 40.7803 8.94556 41.5093 9.30781 42.1399C9.67006 42.7708 10.2015 43.3034 10.8771 43.6956L26.3764 52.6912C27.0523 53.0833 27.7768 53.2794 28.5017 53.2794V45.27C28.0375 45.2704 27.5733 45.1443 27.1404 44.8936L27.141 44.8939Z" fill="#00525E"/>
<path fill-rule="evenodd" clip-rule="evenodd" d="M17.2127 22.8661L27.14 17.1042C27.5729 16.8531 28.0368 16.7278 28.5013 16.7278C28.9652 16.7278 29.4294 16.8531 29.8623 17.1042L39.7899 22.8661C40.2228 23.1172 40.5626 23.4585 40.7947 23.8626L47.6949 19.8579C47.3326 19.227 46.8015 18.6944 46.1255 18.3022L30.6262 9.30666C29.9507 8.91449 29.2261 8.71875 28.5016 8.71875C27.7768 8.71875 27.0523 8.91483 26.3767 9.30666L10.8774 18.3022C10.2015 18.6944 9.67036 19.227 9.30811 19.8579L16.2082 23.8626C16.4403 23.4585 16.7805 23.1172 17.2134 22.8661H17.2127Z" fill="#00DBB0"/>
<path fill-rule="evenodd" clip-rule="evenodd" d="M28.5041 28.0314L41.1533 35.373V36.7616C41.1533 37.2641 41.0296 37.7311 40.7972 38.1352C40.5651 38.539 40.2249 38.8803 39.7923 39.1317L29.8647 44.8936C29.4318 45.1443 28.968 45.27 28.5041 45.27V53.2794C29.2286 53.2794 29.9531 53.0833 30.6287 52.6912L46.128 43.6956C46.8039 43.3034 47.335 42.7708 47.6973 42.1399C48.0599 41.5093 48.2529 40.7803 48.2529 39.9956V22.0048C48.2529 21.2204 48.0595 20.4914 47.6973 19.8608L40.7972 23.8655C40.7958 23.8635 40.7948 23.8611 40.7935 23.859L35.986 26.6496C35.8446 26.4064 35.639 26.2008 35.3777 26.0494L29.3322 22.5404C29.0685 22.3881 28.7861 22.3115 28.5038 22.3115C28.221 22.3115 27.9386 22.3881 27.6749 22.5404L23.3582 25.0461L28.5038 28.0325L28.5041 28.0314Z" fill="#00AF8A"/>
<path fill-rule="evenodd" clip-rule="evenodd" d="M28.5038 28.0352L23.3582 25.0485L27.6747 22.5431C28.2021 22.2377 28.8056 22.2377 29.3323 22.5431L35.3774 26.0521C35.6387 26.2038 35.8447 26.4091 35.9857 26.6524L40.7932 23.8618C40.5614 23.4607 40.2226 23.1215 39.7917 22.8718L29.8645 17.1099C29.4315 16.8588 28.968 16.7334 28.5035 16.7334C28.0393 16.7334 27.5754 16.8588 27.1421 17.1099L17.2149 22.8718C16.7823 23.1229 16.4418 23.4641 16.2097 23.8682C15.9776 24.272 15.8542 24.7393 15.8542 25.2415V26.6127L28.5038 33.9542L33.6637 36.9488L29.3323 39.4634C29.0686 39.6161 28.7862 39.6922 28.5042 39.6922C28.2211 39.6929 27.9387 39.6161 27.6747 39.4634L21.6295 35.9547L21.0138 35.3422L16.2063 38.1321L16.2097 38.1386C16.4418 38.542 16.7823 38.884 17.2149 39.1347L27.1421 44.897C27.5751 45.1481 28.0396 45.2734 28.5035 45.2728C28.968 45.2728 29.4312 45.1481 29.8641 44.897L39.7914 39.1347C41.3515 38.2305 41.1527 36.8364 41.1527 35.3764L28.5035 28.0348L28.5038 28.0352Z" fill="#FEFEFE"/>
</svg>
